<svg width="61" height="62" viewBox="0 0 61 62" fill="none" xmlns="http://www.w3.org/2000/svg">
<path d="M2.85938 27.6649V58.1649H58.1406V27.6649C58.1406 -9.50701 2.85938 -8.93513 2.85938 27.6649Z" fill="#89664C"/>
<path d="M6.86243 29.7617V58.1649H54.0421V29.7617C54.1374 -4.74138 6.86243 -4.26482 6.86243 29.7617Z" fill="#594640"/>
<path d="M7.625 30.2383V58.1649H53.375V30.2383C53.375 -3.88356 7.625 -3.31169 7.625 30.2383Z" fill="#A37D64"/>
<path d="M0 58.1649H61V61.0243H0V58.1649Z" fill="#94989B"/>
<path d="M33.55 29.0946H49.3719C48.8 17.5617 41.4609 11.3664 33.55 10.2227V29.0946ZM28.3078 29.0946V10.318C20.3969 11.4617 13.0578 17.8477 12.4859 29.0946H28.3078ZM33.55 34.4321H49.4672V53.3992H33.55V34.4321ZM12.3906 34.4321H28.3078V53.3992H12.3906V34.4321Z" fill="#594640"/>
<path d="M33.1687 28.7133H48.9906C48.4187 17.1805 41.0797 10.9852 33.1687 9.84143V28.7133ZM27.8312 28.7133V9.93674C19.9203 11.0805 12.5813 17.4664 12.0094 28.7133H27.8312ZM33.1687 34.0508H49.0859V53.018H33.1687V34.0508ZM11.9141 34.0508H27.8312V53.018H11.9141V34.0508Z" fill="#89664C"/>
<path d="M45.2734 27.5696H51.9453V40.9133H45.2734V27.5696Z" fill="#FFCE31"/>
<path d="M45.75 28.0461H51.4687V40.4368H45.75V28.0461Z" fill="#F2B200"/>
<path d="M49.5625 39.293L49.1812 36.7195C49.3719 36.5289 49.5625 36.243 49.5625 35.957C49.5625 35.3852 49.1812 35.0039 48.6094 35.0039C48.0375 35.0039 47.6562 35.3852 47.6562 35.957C47.6562 36.243 47.8469 36.5289 48.0375 36.7195L47.6562 39.293H49.5625Z" fill="#3E4347"/>
<path d="M48.6094 34.2414C50.136 34.2414 51.3735 33.0039 51.3735 31.4774C51.3735 29.9508 50.136 28.7133 48.6094 28.7133C47.0829 28.7133 45.8453 29.9508 45.8453 31.4774C45.8453 33.0039 47.0829 34.2414 48.6094 34.2414Z" fill="#B78300"/>
<path d="M51.2781 31.0008C51.2781 32.5258 50.0391 33.7649 48.5141 33.7649C46.9891 33.7649 45.75 32.5258 45.75 31.0008C45.75 29.4758 46.9891 28.2367 48.5141 28.2367C50.0391 28.2367 51.2781 29.4758 51.2781 31.0008Z" fill="#FFD664"/>
</svg>
