<svg width="19" height="19" viewBox="0 0 19 19" fill="none" xmlns="http://www.w3.org/2000/svg">
<path fill-rule="evenodd" clip-rule="evenodd" d="M14.6187 9.92875C14.5978 9.97819 14.5713 10.0251 14.54 10.0688L9.29 16.1762C9.08681 16.4138 8.7723 16.525 8.46495 16.4678C8.1576 16.4106 7.9041 16.1938 7.79995 15.899C7.69579 15.6043 7.75681 15.2763 7.96 15.0388L11.9675 10.375L1.625 10.375C1.14175 10.375 0.75 9.98325 0.75 9.5C0.75 9.01675 1.14175 8.625 1.625 8.625L11.9675 8.625L7.96 3.94375C7.64589 3.57648 7.68898 3.02411 8.05625 2.71C8.42352 2.39589 8.97589 2.43898 9.29 2.80625L14.54 8.93125C14.5713 8.97486 14.5978 9.02182 14.6187 9.07125L14.6888 9.17625C14.7715 9.38414 14.7715 9.61586 14.6888 9.82375L14.6187 9.92875ZM16.5 0.75H14.75C14.2668 0.75 13.875 1.14175 13.875 1.625C13.875 2.10825 14.2668 2.5 14.75 2.5H16.4387C16.4809 2.5778 16.5021 2.66527 16.5 2.75375L16.5 16.2463C16.5021 16.3347 16.4809 16.4222 16.4387 16.5H14.75C14.2668 16.5 13.875 16.8918 13.875 17.375C13.875 17.8582 14.2668 18.25 14.75 18.25H16.5C17.532 18.1707 18.3103 17.2795 18.25 16.2463L18.25 2.75375C18.3103 1.72051 17.532 0.829327 16.5 0.75Z" fill="black"/>
</svg>
