<svg width="65" height="63" viewBox="0 0 65 63" fill="none" xmlns="http://www.w3.org/2000/svg">
<path d="M15.2769 49.3069C14.7351 49.1986 14.3018 49.0902 13.76 48.8736C13.2183 48.6569 12.7849 48.5485 12.3515 48.3318C11.3764 47.8984 10.5096 47.3567 9.64285 46.7066C7.9093 45.5148 6.5008 43.8896 5.41733 41.9394C4.33386 40.0975 3.68378 37.9305 3.57544 35.872C3.46709 34.7885 3.57544 33.8134 3.68378 32.7299C3.79213 32.1882 3.90048 31.7548 4.00882 31.2131C4.11717 30.6713 4.33386 30.2379 4.44221 29.6962L4.55056 31.2131C4.55056 31.7548 4.6589 32.1882 4.76725 32.7299C4.8756 33.705 5.09229 34.6801 5.30898 35.5469C5.74237 37.3888 6.39245 39.1224 7.36757 40.7476C8.34269 42.3728 9.42615 43.8896 10.8347 45.2981C11.4847 45.9482 12.2432 46.5983 13.0016 47.2484C13.3266 47.5734 13.76 47.8984 14.1934 48.2235L15.2769 49.3069ZM14.9518 53.2074C14.6268 53.4241 14.1934 53.5325 13.76 53.6408C13.3266 53.7491 13.0016 53.8575 12.5682 53.8575C11.8098 53.9658 10.943 54.0742 10.0762 53.9658C8.45103 53.8575 6.71749 53.4241 5.30898 52.6657C3.79213 51.9073 2.49197 50.7154 1.6252 49.3069C1.19181 48.6569 0.758426 47.8984 0.433386 47.14C0.32504 46.815 0.216693 46.3816 0.108346 45.9482C0.108346 45.6232 0 45.2981 0 44.8647C0.32504 45.1898 0.541733 45.5148 0.758426 45.7315C1.08347 46.0565 1.30016 46.3816 1.51685 46.5983C2.05859 47.14 2.49197 47.6817 3.0337 48.1151C4.11717 49.0902 5.20064 49.957 6.5008 50.6071C7.69261 51.2572 9.10111 51.7989 10.4013 52.2323C11.0514 52.449 11.8098 52.5573 12.5682 52.774C12.8932 52.8824 13.3266 52.8824 13.6517 52.9907C14.1934 53.0991 14.5184 53.0991 14.9518 53.2074ZM39.4382 0.550971C39.9799 0.659317 40.4133 0.87601 40.955 1.0927C41.4967 1.3094 41.9301 1.52609 42.3635 1.74278C43.3386 2.28452 44.2054 2.82625 45.0722 3.47633C46.8057 4.77649 48.2142 6.51003 49.1894 8.46027C50.1645 10.4105 50.7062 12.5774 50.7062 14.636C50.7062 15.7195 50.5979 16.6946 50.3812 17.7781C50.2728 18.3198 50.1645 18.7532 49.9478 19.2949C49.7311 19.8367 49.6227 20.2701 49.406 20.7034L49.2977 19.1866C49.2977 18.6449 49.2977 18.2115 49.1894 17.6697L48.8643 14.7444C48.5393 12.9025 47.8892 11.0606 47.0224 9.32704C46.1557 7.5935 45.0722 6.07665 43.772 4.66814C43.1219 3.90972 42.3635 3.25964 41.7134 2.50121C41.3884 2.17617 40.955 1.85113 40.5216 1.52609L39.4382 0.550971ZM48.8643 0.117584C49.2977 0.225931 49.6227 0.334278 49.9478 0.550971C50.2728 0.659317 50.7062 0.87601 51.0312 1.0927C51.6813 1.52609 52.3314 1.95948 52.9815 2.50121C54.1733 3.58468 55.1484 4.88483 55.6902 6.40169C56.3402 7.91854 56.5569 9.54374 56.3402 11.1689C56.2319 11.9274 56.0152 12.6858 55.7985 13.4442C55.6901 13.7693 55.4735 14.2026 55.3651 14.5277C55.1484 14.8527 55.0401 15.1778 54.715 15.5028V14.4193V13.3359C54.715 12.5774 54.6067 11.9274 54.6067 11.2773C54.39 9.86878 54.1733 8.56862 53.6316 7.37681C53.0898 6.07665 52.4398 4.99318 51.6813 3.80137C51.2479 3.25964 50.8146 2.60956 50.3812 2.06782C50.1645 1.74278 49.9478 1.52609 49.6227 1.20105C49.406 0.659317 49.081 0.334277 48.8643 0.117584Z" fill="#42ADE2"/>
<path d="M8.66773 16.2612C6.5008 17.2363 5.74238 19.8367 6.7175 22.0036L20.3692 50.4987L27.9534 46.9233L14.3018 18.3198C13.3266 16.1529 10.8347 15.1778 8.66773 16.2612ZM44.5305 38.9057L52.5481 35.1135L36.9462 2.60955C35.8627 0.442616 33.2624 -0.532503 30.9871 0.550963C28.8202 1.63443 27.8451 4.23475 28.9285 6.51003L44.5305 38.9057Z" fill="#FFDD67"/>
<path d="M31.0954 0.442621C30.8787 0.550967 30.662 0.659314 30.4453 0.876007C32.5039 0.334274 34.6708 1.30939 35.646 3.25963L51.2479 35.7636L52.6564 35.1135L37.0545 2.60955C35.971 0.334274 33.3707 -0.640845 31.0954 0.442621Z" fill="#EBA352"/>
<path d="M27.9534 46.815L36.2961 42.8061L20.3692 9.65208C19.2857 7.3768 16.4687 6.29333 14.1934 7.3768C11.9181 8.46027 10.943 11.2773 12.0265 13.5526L27.9534 46.815Z" fill="#FFDD67"/>
<path d="M14.1934 7.48515C13.9767 7.5935 13.76 7.70185 13.5433 7.91854C15.6019 7.37681 17.9855 8.35193 18.9607 10.4105L28.8202 31.1047L31.2038 32.5132L20.3692 9.76043C19.2857 7.37681 16.577 6.40169 14.1934 7.48515Z" fill="#EBA352"/>
<path d="M34.996 40.2058L43.3387 36.197L27.4117 3.04294C26.3282 0.767663 23.5112 -0.315803 21.236 0.87601C18.9607 1.95948 17.9856 4.77649 19.069 7.05177L34.996 40.2058Z" fill="#FFDD67"/>
<path d="M21.2359 0.767654C21.0192 0.876 20.8025 1.09269 20.5858 1.20104C22.6444 0.659307 25.0281 1.63443 26.0032 3.69301L37.1629 27.0959L39.5465 28.5044L27.4117 3.04293C26.3282 0.659307 23.5112 -0.315812 21.2359 0.767654ZM8.66772 16.2612C8.45103 16.3696 8.23433 16.4779 8.01764 16.6946C9.96788 16.1529 12.0265 17.128 12.8932 19.0782L21.0192 36.0886L23.4029 37.4972L14.3017 18.4281C13.3266 16.1529 10.8347 15.1778 8.66772 16.2612Z" fill="#EBA352"/>
<path d="M63.7078 13.0108C60.7825 10.7355 56.0152 13.2275 53.6316 21.0285C52.0064 26.4458 51.7897 28.071 48.3226 29.6962L46.3724 25.6874C46.3724 25.6874 15.6019 40.5309 16.7938 42.9145C16.7938 42.9145 20.4775 54.3992 26.7616 59.7082C36.0795 67.7259 57.8571 59.1665 58.8322 38.4723C59.374 26.4458 66.8499 15.5028 63.7078 13.0108Z" fill="#FFDD67"/>
<path d="M63.7078 13.0108C63.1661 12.5774 62.516 12.3607 61.8659 12.2524C61.9743 12.3607 62.191 12.3607 62.2993 12.4691C65.5497 14.9611 62.191 20.7034 60.3491 25.9041C58.8322 30.0212 57.5321 34.2468 57.7488 38.3639C58.6156 56.3495 40.5217 64.9088 29.687 61.6585C40.305 66.1007 60.0241 57.6496 59.1573 38.9057C58.9406 34.7885 60.1324 30.7797 61.7576 26.4458C63.4911 21.2452 66.8499 15.5028 63.7078 13.0108Z" fill="#EBA352"/>
<path d="M49.2977 29.2628C42.5802 30.0212 32.7207 39.6641 39.6549 50.1737C34.5626 39.5557 42.9053 32.4049 48.2142 29.9129C48.756 29.4795 49.2977 29.2628 49.2977 29.2628Z" fill="#EBA352"/>
</svg>
