<svg width="1215" height="366" viewBox="0 0 1215 366" fill="none" xmlns="http://www.w3.org/2000/svg">
<path d="M636.095 231.992C636.095 204.081 646.807 181.515 673.291 181.515C699.774 181.515 710.486 204.081 710.486 231.992C710.486 259.903 699.774 282.469 673.291 282.469C646.807 282.469 636.095 259.903 636.095 231.992ZM594.436 231.992C594.436 277.124 622.407 313.645 673.291 313.645C724.174 313.645 752.146 277.124 752.146 231.992C752.146 186.86 724.174 150.339 673.291 150.339C622.407 150.339 594.436 186.86 594.436 231.992Z" fill="black"/>
<path d="M909.948 154.793H868.289V234.961C868.289 266.138 856.387 279.499 834.069 279.499C814.727 279.499 807.288 267.622 807.288 240.9V154.793H765.629V249.807C765.629 285.438 777.532 313.645 820.679 313.645C854.899 313.645 868.289 283.953 868.289 283.953H869.777V309.191H909.948V154.793Z" fill="black"/>
<path d="M921.898 154.793V187.454H969.508V267.622C969.508 303.253 988.85 310.676 1017.12 310.676C1034.97 310.676 1042.41 307.707 1042.41 307.707V276.53C1042.41 276.53 1037.95 278.015 1029.02 278.015C1015.63 278.015 1011.17 273.561 1011.17 260.199V187.454H1061.75V154.793H921.898Z" fill="black"/>
<path d="M1173.34 309.191H1215V154.793H1173.34V215.661H1115.32V154.793H1073.66V309.191H1115.32V248.323H1173.34V309.191Z" fill="black"/>
<path d="M158.956 154.768H118.082V175.439H116.568C116.568 175.439 102.943 150.339 68.124 150.339C22.708 150.339 0 188.727 0 228.592C0 268.456 22.708 306.844 68.124 306.844C101.429 306.844 115.054 286.174 115.054 286.174H116.568V293.556C116.568 320.133 107.182 334.897 80.2349 334.897C49.9576 334.897 48.4437 312.75 48.4437 312.75H6.05547C6.05547 312.75 7.56933 365.903 80.2349 365.903C134.734 365.903 158.956 334.897 158.956 290.603V154.768ZM118.082 228.592C118.082 253.396 105.971 275.839 80.2349 275.839C54.4992 275.839 42.3883 253.396 42.3883 228.592C42.3883 203.787 54.4992 181.345 80.2349 181.345C105.971 181.345 118.082 203.787 118.082 228.592Z" fill="black"/>
<path d="M215.064 231.545C215.064 203.787 225.963 181.345 252.91 181.345C279.857 181.345 290.757 203.787 290.757 231.545C290.757 259.302 279.857 281.745 252.91 281.745C225.963 281.745 215.064 259.302 215.064 231.545ZM172.675 231.545C172.675 276.429 201.136 312.75 252.91 312.75C304.685 312.75 333.145 276.429 333.145 231.545C333.145 186.66 304.685 150.339 252.91 150.339C201.136 150.339 172.675 186.66 172.675 231.545Z" fill="black"/>
<path fill-rule="evenodd" clip-rule="evenodd" d="M352.742 19.2989L381.047 0.0967407C385.577 4.99886 390.698 10.2805 396.24 15.9972C416.495 36.8887 442.383 63.5907 465.672 98.8148C485.439 109.814 505.613 114.843 524.933 115.406C544.238 115.969 563.356 112.11 581.166 104.725C596.632 90.1359 614.164 76.1267 633.581 60.6115C640.199 55.3237 647.036 49.8609 654.084 44.1406L679.355 67.1597C659.941 95.7529 632.398 119.298 600.636 133.87C589.796 144.466 580.574 155.179 572.547 167.393C550.801 200.485 537.297 245.979 530.47 333.242L495.907 331.903C495.907 240.361 472.644 176.467 444.058 129.294C443.041 127.616 442.018 125.96 440.99 124.324C407.613 103.427 377.038 69.1426 352.742 19.2989ZM492.1 145.759C501.204 165.081 509.223 186.441 515.548 210.182C522.717 186.347 531.75 166.699 543.066 149.305C536.741 149.86 530.352 150.055 523.921 149.867C513.279 149.557 502.641 148.207 492.1 145.759Z" fill="#FF8C4B"/>
<path d="M552.651 41.9339C555.496 59.4935 545.6 75.7047 530.549 78.1427C515.498 80.5808 500.991 68.3223 498.147 50.7627C495.302 33.2031 505.198 16.9919 520.249 14.5538C535.3 12.1158 549.807 24.3743 552.651 41.9339Z" fill="#FF8C4B"/>
</svg>
