<svg width="20" height="20" viewBox="0 0 20 20" fill="none" xmlns="http://www.w3.org/2000/svg">
<path fill-rule="evenodd" clip-rule="evenodd" d="M13.7372 12.6583L18.8372 17.5992C19.016 17.7713 19.1166 18.0056 19.1166 18.25C19.1166 18.4944 19.016 18.7287 18.8372 18.9008C18.6599 19.0744 18.4185 19.172 18.1667 19.172C17.9148 19.172 17.6734 19.0744 17.4961 18.9008L12.4055 13.9508C11.0856 14.9564 9.45571 15.502 7.77776 15.5C3.60494 15.5 0.222198 12.2168 0.222198 8.16668C0.222198 4.11659 3.60494 0.833344 7.77776 0.833344C11.9506 0.833344 15.3333 4.11659 15.3333 8.16668C15.3354 9.79528 14.7733 11.3773 13.7372 12.6583ZM7.77776 2.66668C4.64814 2.66668 2.11109 5.12911 2.11109 8.16668C2.11109 11.2042 4.64814 13.6667 7.77776 13.6667C10.9074 13.6667 13.4444 11.2042 13.4444 8.16668C13.4444 5.12911 10.9074 2.66668 7.77776 2.66668Z" fill="black"/>
</svg>
