<svg width="43" height="43" viewBox="0 0 43 43" fill="none" xmlns="http://www.w3.org/2000/svg">
<path opacity="0.5" d="M32.5115 29.1504H29.8975C28.9085 29.1504 28.6111 28.3495 26.8373 26.5758C25.2893 25.0833 24.6354 24.897 24.243 24.897C23.7019 24.897 23.5532 25.0457 23.5532 25.7928V28.1435C23.5532 28.7795 23.3472 29.1522 21.6863 29.1522C20.0744 29.0439 18.5113 28.5542 17.1258 27.7234C15.7402 26.8926 14.5719 25.7446 13.7169 24.3738C11.6873 21.8476 10.2751 18.8826 9.59253 15.7147C9.59253 15.3223 9.74124 14.9676 10.4884 14.9676H13.1006C13.7725 14.9676 14.0144 15.2668 14.2777 15.9566C15.5462 19.6904 17.7106 22.9369 18.5885 22.9369C18.9235 22.9369 19.0722 22.7882 19.0722 21.9479V18.103C18.9612 16.349 18.0277 16.2003 18.0277 15.566C18.0397 15.3984 18.1166 15.2421 18.2421 15.1303C18.3675 15.0185 18.5317 14.9602 18.6996 14.9676H22.8061C23.3669 14.9676 23.5532 15.2471 23.5532 15.919V21.1076C23.5532 21.6684 23.7951 21.8548 23.9635 21.8548C24.2985 21.8548 24.5601 21.6684 25.1764 21.0521C26.5005 19.4396 27.5809 17.6408 28.3871 15.7129C28.4694 15.4816 28.6252 15.2835 28.8306 15.1489C29.036 15.0143 29.2798 14.9506 29.5248 14.9676H32.1371C32.9218 14.9676 33.0902 15.36 32.9218 15.919C31.9713 18.0482 30.7952 20.0694 29.4137 21.9479C29.1324 22.3779 29.0196 22.6019 29.4137 23.1053C29.6735 23.4977 30.5891 24.2628 31.2054 24.9902C32.1012 25.8842 32.8448 26.918 33.4074 28.0503C33.6313 28.7778 33.2569 29.1504 32.5115 29.1504Z" fill="white"/>
<path d="M27.0057 3.58334H16.012C5.97154 3.58334 3.58325 5.97164 3.58325 15.9942V26.9879C3.58325 37.0266 5.95363 39.4167 15.9941 39.4167H26.9878C37.0265 39.4167 39.4166 37.0463 39.4166 27.0058V16.0121C39.4166 5.97164 37.0462 3.58334 27.0057 3.58334ZM32.5115 29.1504H29.8975C28.9085 29.1504 28.611 28.3496 26.8373 26.5758C25.2893 25.0833 24.6353 24.897 24.243 24.897C23.7019 24.897 23.5532 25.0457 23.5532 25.7928V28.1435C23.5532 28.7796 23.3471 29.1522 21.6863 29.1522C20.0744 29.0439 18.5113 28.5542 17.1257 27.7234C15.7402 26.8927 14.5718 25.7446 13.7169 24.3738C11.6873 21.8476 10.275 18.8826 9.5925 15.7147C9.5925 15.3223 9.74121 14.9676 10.4883 14.9676H13.1006C13.7725 14.9676 14.0143 15.2668 14.2777 15.9566C15.5462 19.6904 17.7105 22.9369 18.5885 22.9369C18.9253 22.9369 19.0722 22.7882 19.0722 21.9479V18.103C18.9611 16.349 18.0295 16.2003 18.0295 15.566C18.0414 15.3987 18.1181 15.2427 18.2432 15.131C18.3683 15.0192 18.532 14.9606 18.6995 14.9676H22.806C23.3668 14.9676 23.5532 15.2471 23.5532 15.919V21.1076C23.5532 21.6684 23.795 21.8548 23.9635 21.8548C24.3003 21.8548 24.5601 21.6684 25.1764 21.0521C26.5002 19.4377 27.5818 17.6391 28.3871 15.7129C28.4694 15.4816 28.6252 15.2835 28.8306 15.1489C29.036 15.0143 29.2798 14.9507 29.5248 14.9676H32.1388C32.9218 14.9676 33.0884 15.36 32.9218 15.919C31.9713 18.0482 30.7952 20.0694 29.4137 21.9479C29.1324 22.3779 29.0195 22.6019 29.4137 23.1053C29.6753 23.4977 30.589 24.2628 31.2054 24.9902C32.1012 25.8842 32.8448 26.918 33.4073 28.0503C33.6313 28.7778 33.2568 29.1504 32.5115 29.1504Z" fill="#1286DC"/>
</svg>
